<svg xmlns="http://www.w3.org/2000/svg" viewBox="0 0 1600 900" preserveAspectRatio="xMidYMid slice">
  <defs>
    <radialGradient id="nebula" cx="50%" cy="45%" r="55%">
      <stop offset="0%" stop-color="#5c4dff" stop-opacity="0.72"/>
      <stop offset="55%" stop-color="#231b4f" stop-opacity="0.14"/>
      <stop offset="100%" stop-color="#02040b" stop-opacity="0.9"/>
    </radialGradient>
    <radialGradient id="glow" cx="17%" cy="20%" r="30%">
      <stop offset="0%" stop-color="#84d0ff" stop-opacity="0.85"/>
      <stop offset="100%" stop-color="#84d0ff" stop-opacity="0"/>
    </radialGradient>
  </defs>
  <rect width="1600" height="900" fill="#060916"/>
  <circle cx="360" cy="150" r="120" fill="url(#glow)"/>
  <circle cx="1300" cy="220" r="88" fill="#8a5cff" opacity="0.45"/>
  <circle cx="280" cy="680" r="72" fill="#47c7ff" opacity="0.22"/>
  <circle cx="1180" cy="730" r="138" fill="#ad7dff" opacity="0.18"/>
  <circle cx="850" cy="460" r="270" fill="url(#nebula)"/>
  <g opacity="0.28">
    <path d="M450 180C530 240 620 190 690 230C760 270 820 340 780 430C740 520 620 590 520 560C420 530 380 430 360 330C340 230 370 120 450 180Z" fill="#8f6cff"/>
    <path d="M1040 90C1130 150 1210 120 1270 180C1330 240 1350 330 1310 410C1270 490 1190 540 1110 520C1030 500 1010 390 990 310C970 230 1030 30 1040 90Z" fill="#64c8ff"/>
  </g>
  <g fill="#fff" opacity="0.85">
    <circle cx="180" cy="120" r="3"/>
    <circle cx="540" cy="240" r="2.5"/>
    <circle cx="950" cy="90" r="3"/>
    <circle cx="1320" cy="310" r="2"/>
    <circle cx="1470" cy="170" r="2"/>
    <circle cx="1230" cy="640" r="2.5"/>
    <circle cx="400" cy="750" r="2"/>
    <circle cx="870" cy="560" r="3"/>
    <circle cx="1100" cy="470" r="1.5"/>
  </g>
</svg>
